<svg xmlns="http://www.w3.org/2000/svg" xmlns:xlink="http://www.w3.org/1999/xlink" viewBox="0 0 612 612"><defs><radialGradient id="a" cx="1211.32" cy="771.6" r="73.59" gradientTransform="translate(1021.44 1418.84) rotate(-148.54)" gradientUnits="userSpaceOnUse"><stop offset="0" stop-color="#fff"/><stop offset="0.02" stop-color="#f4f4f4"/><stop offset="0.14" stop-color="#bcbcbc"/><stop offset="0.25" stop-color="#8a8a8a"/><stop offset="0.37" stop-color="#606060"/><stop offset="0.49" stop-color="#3e3e3e"/><stop offset="0.61" stop-color="#232323"/><stop offset="0.74" stop-color="#101010"/><stop offset="0.86" stop-color="#050505"/><stop offset="1" stop-color="#010101"/></radialGradient><radialGradient id="b" cx="-1332.13" cy="-337.04" r="150.95" gradientTransform="matrix(-0.04, 0.02, 0.39, 0.92, 460.04, 459.78)" xlink:href="#a"/><radialGradient id="c" cx="747.72" cy="741.37" r="51.94" gradientTransform="matrix(1, 0, 0, -1, 0, 744)" xlink:href="#a"/><radialGradient id="d" cx="1520.14" cy="-244.18" r="106.54" gradientTransform="matrix(-0.04, 0.02, 0.39, 0.92, 460.04, 459.78)" xlink:href="#a"/><radialGradient id="e" cx="8890.65" cy="165.14" r="163.98" gradientTransform="matrix(-0.02, -0.04, -0.92, 0.39, 629.5, 563.79)" xlink:href="#a"/><radialGradient id="f" cx="5838.82" cy="430.71" r="82.93" gradientTransform="matrix(0.02, -0.04, -0.93, -0.38, 602.17, 673.05)" xlink:href="#a"/><radialGradient id="g" cx="7260.82" cy="-67.4" r="83.06" gradientTransform="matrix(-0.04, -0.02, -0.38, 0.93, 576.75, 468.92)" xlink:href="#a"/><radialGradient id="h" cx="1061.29" cy="644.9" r="88.41" gradientTransform="matrix(-0.81, 0.58, -0.58, -0.81, 1412.79, 326.94)" xlink:href="#a"/><radialGradient id="i" cx="871.94" cy="704.86" r="132.93" gradientTransform="matrix(-0.81, 0.58, -0.58, -0.81, 1412.79, 326.94)" xlink:href="#a"/><radialGradient id="j" cx="848.94" cy="717.9" r="263.45" gradientTransform="matrix(-0.81, 0.58, -0.58, -0.81, 1412.79, 326.94)" xlink:href="#a"/><radialGradient id="k" cx="760.64" cy="570.36" r="71.58" gradientTransform="matrix(-0.81, 0.58, -0.58, -0.81, 1412.79, 326.94)" xlink:href="#a"/><radialGradient id="l" cx="10926.92" cy="34.62" r="232.34" gradientTransform="matrix(-0.02, -0.04, -0.92, 0.39, 629.5, 563.79)" xlink:href="#a"/><radialGradient id="m" cx="9299.05" cy="404.22" r="117.72" gradientTransform="matrix(0.02, -0.04, -0.93, -0.38, 602.17, 673.05)" xlink:href="#a"/><radialGradient id="n" cx="6683.45" cy="-225.38" r="117.64" gradientTransform="matrix(-0.04, -0.02, -0.38, 0.93, 576.75, 468.92)" xlink:href="#a"/><radialGradient id="o" cx="934.45" cy="796.25" r="51.94" gradientTransform="matrix(1, 0, 0, -1, 0, 744)" xlink:href="#a"/><radialGradient id="p" cx="2916.56" cy="-428.13" r="106.56" gradientTransform="matrix(-0.04, 0.02, 0.39, 0.92, 460.04, 459.78)" xlink:href="#a"/><radialGradient id="q" cx="12913.09" cy="228.68" r="163.98" gradientTransform="matrix(-0.02, -0.04, -0.92, 0.39, 629.5, 563.79)" xlink:href="#a"/><radialGradient id="r" cx="7697.36" cy="605.8" r="82.95" gradientTransform="matrix(0.02, -0.04, -0.93, -0.38, 602.17, 673.05)" xlink:href="#a"/><radialGradient id="s" cx="11096.54" cy="-152.41" r="83.03" gradientTransform="matrix(-0.04, -0.02, -0.38, 0.93, 576.75, 468.92)" xlink:href="#a"/><radialGradient id="t" cx="315.39" cy="612.13" r="220.6" gradientTransform="matrix(0.98, -0.22, -0.22, -0.98, 97.63, 874.6)" gradientUnits="userSpaceOnUse"><stop offset="0" stop-color="#efe31a"/><stop offset="0.27" stop-color="#efe01a"/><stop offset="0.51" stop-color="#edd51c"/><stop offset="0.74" stop-color="#ebc31f"/><stop offset="0.95" stop-color="#e9aa22"/><stop offset="0.99" stop-color="#e8a523"/></radialGradient><radialGradient id="u" cx="375.02" cy="629.52" r="92.57" gradientTransform="matrix(1, 0, 0, -1, 0, 744)" xlink:href="#t"/><radialGradient id="v" cx="390.8" cy="445.89" r="72.93" gradientTransform="matrix(1, 0, 0, -1, 0, 744)" xlink:href="#t"/><radialGradient id="w" cx="154.74" cy="420.75" r="60.01" gradientTransform="matrix(1, 0, 0, -1, 0, 744)" xlink:href="#t"/><radialGradient id="x" cx="274.94" cy="568.53" r="44.12" gradientTransform="matrix(1, 0, 0, -1, 0, 744)" xlink:href="#t"/><radialGradient id="y" cx="122.22" cy="560.9" r="44.13" gradientTransform="matrix(1, 0, 0, -1, 0, 744)" xlink:href="#t"/><radialGradient id="z" cx="191.95" cy="653.36" r="53.15" gradientTransform="matrix(1, 0, 0, -1, 0, 744)" xlink:href="#t"/><radialGradient id="aa" cx="290.78" cy="521.04" r="56.27" gradientTransform="matrix(1, 0, 0, -1, 0, 744)" xlink:href="#t"/><mask id="ab" x="328.73" y="18.43" width="147.2" height="147.2" maskUnits="userSpaceOnUse"><path d="M328.73,92.06a73.6,73.6,0,1,0,0-.06Z" fill="url(#a)"/></mask><mask id="ac" x="332.49" y="-8.54" width="117.92" height="278.43" maskUnits="userSpaceOnUse"><path d="M385.07,133.38C352.7,56.5,329.34-7,332.84-8.51s32.6,59.69,65,136.48,55.73,140.36,52.22,141.89S417.39,210.18,385.07,133.38Z" fill="url(#b)"/></mask><mask id="ad" x="177.24" y="39.97" width="428.43" height="181.35" maskUnits="userSpaceOnUse"><path d="M387.25,120.89c118.29-49.81,216-85.78,218.38-80.38s-91.81,50.18-210.07,99.92-216,85.74-218.28,80.36S269,170.64,387.25,120.89Z" fill="url(#l)"/></mask><mask id="ae" x="282.47" y="85.98" width="217.88" height="89.37" maskUnits="userSpaceOnUse"><path d="M393.41,125.67c60.22,24.51,108,46.63,106.92,49.39s-50.81-14.88-110.92-39.41-108-46.58-106.92-49.38S333.29,101.18,393.41,125.67Z" fill="url(#m)"/></mask><mask id="af" x="346.75" y="21.71" width="89.35" height="217.87" maskUnits="userSpaceOnUse"><path d="M386.43,128.65c24.51-60.17,46.62-108,49.38-106.92s-14.92,50.83-39.42,110.91-46.61,108-49.36,106.92S361.93,188.78,386.43,128.65Z" fill="url(#n)"/></mask><mask id="ag" x="125.23" y="70.35" width="104.01" height="103.99" maskUnits="userSpaceOnUse"><path d="M133,95.06a52,52,0,1,0,71.56-17h-.06A52,52,0,0,0,133,95.06Z" fill="url(#o)"/></mask><mask id="ah" x="135.63" y="24.09" width="83.13" height="196.45" maskUnits="userSpaceOnUse"><path d="M172.72,124.25C149.89,70,133.44,25.18,135.87,24.11s23,42.1,45.81,96.31,39.32,99,36.84,100.1S195.53,178.45,172.72,124.25Z" fill="url(#p)"/></mask><mask id="ai" x="26.08" y="58.33" width="302.19" height="127.98" maskUnits="userSpaceOnUse"><path d="M174.25,115.43c83.48-35.12,152.45-60.53,154-56.72s-64.7,35.47-148.14,70.53-152.41,60.5-154,56.7S90.84,150.55,174.25,115.43Z" fill="url(#q)"/></mask><mask id="aj" x="100.33" y="90.8" width="153.76" height="63.05" maskUnits="userSpaceOnUse"><path d="M178.63,118.82c42.47,17.31,76.24,32.88,75.45,34.83s-35.87-10.47-78.31-27.81S99.56,92.94,100.35,91,136.2,101.53,178.63,118.82Z" fill="url(#r)"/></mask><mask id="ak" x="145.68" y="45.47" width="63.04" height="153.73" maskUnits="userSpaceOnUse"><path d="M173.68,120.92c17.3-42.46,32.95-76.23,34.85-75.44S198,81.33,180.71,123.77s-32.9,76.21-34.83,75.41S156.42,163.34,173.68,120.92Z" fill="url(#s)"/></mask><mask id="al" x="255.4" y="215.08" width="104.01" height="103.99" maskUnits="userSpaceOnUse"><path d="M263.13,239.79a52,52,0,1,0,71.56-17h-.06A52,52,0,0,0,263.13,239.79Z" fill="url(#c)"/></mask><mask id="am" x="265.78" y="168.8" width="83.15" height="196.35" maskUnits="userSpaceOnUse"><path d="M302.88,268.93C280,214.67,263.56,169.88,266,168.82s23,42.1,45.81,96.31,39.32,99,36.85,100S325.7,323.18,302.88,268.93Z" fill="url(#d)"/></mask><mask id="an" x="156.19" y="203.03" width="302.33" height="127.99" maskUnits="userSpaceOnUse"><path d="M304.42,260.12C387.9,225,456.87,199.6,458.49,203.41s-64.77,35.41-148.19,70.51-152.44,60.52-154.08,56.72S221,295.25,304.42,260.12Z" fill="url(#e)"/></mask><mask id="ao" x="230.53" y="235.5" width="153.73" height="63.05" maskUnits="userSpaceOnUse"><path d="M308.78,263.51c42.5,17.31,76.23,32.89,75.47,34.84S348.4,287.84,306,270.52s-76.21-32.88-75.41-34.82S266.34,246.18,308.78,263.51Z" fill="url(#f)"/></mask><mask id="ap" x="275.84" y="190.15" width="63.06" height="153.74" maskUnits="userSpaceOnUse"><path d="M303.85,265.61c17.3-42.46,32.9-76.22,34.85-75.45S328.17,226,310.88,268.45,278,344.66,276,343.87,286.56,308,303.85,265.61Z" fill="url(#g)"/></mask><mask id="aq" x="105.31" y="385.74" width="176.82" height="176.82" maskUnits="userSpaceOnUse"><path d="M105.31,474.18a88.41,88.41,0,1,0,0-.06Z" fill="url(#h)"/></mask><mask id="ar" x="188.13" y="208.04" width="266" height="266" maskUnits="userSpaceOnUse"><path d="M188.13,341a133,133,0,1,0,133-133,133,133,0,0,0-133,133Z" fill="url(#i)"/></mask><mask id="as" x="43.91" y="-23.87" width="526.96" height="526.92" maskUnits="userSpaceOnUse"><path d="M93.15,393.09C178,511.32,342.38,538.48,460.87,453.72,579.1,368.91,606.34,204.45,521.46,86.18,436.8-32.08,272.2-59.25,154,25.33,35.63,110.12,8.54,274.64,93.15,393.09Z" fill="url(#j)"/></mask><mask id="at" x="393.4" y="236.56" width="143.19" height="143.19" maskUnits="userSpaceOnUse"><path d="M406.81,349.86a71.59,71.59,0,1,0,16.52-99.92,71.59,71.59,0,0,0-16.52,99.92Z" fill="url(#k)"/></mask></defs><title>datalabs</title><g style="isolation:isolate"><path d="M60.53,524.48h6.93V475.94H60.53V461.18H94.64c27.07,0,42.5,16.67,42.5,38,0,25.5-15.43,40.15-42.95,40.15H60.53Zm34.11,0c11.86-.22,16.78-11.3,16.78-25.28,0-12-4.92-23.26-16.78-23.26H90.39v48.54Z" fill="none" stroke="#000" stroke-width="18.93"/><path d="M142.29,488.13c4.47-2.68,14.09-7.94,24.38-7.94,13.42,0,30.31,5,30.31,23V525h6.71v14.32H179.76l-2.68-5c-4.14,5.7-11.07,7.16-15.1,7.16-10.63,0-22-5.7-22-18.68,0-12.64,10.63-20.58,23.26-20.58,6.6,0,10.51,3.24,11.07,3.91v-3.91c0-5-4.59-6.26-10.63-6.26-6.6,0-12.42,2.8-16.67,5.14Zm32,30.87c-.34-.56-1.9-3.24-6.6-3.24-4.47,0-6.49,2.46-6.49,5.93,0,3.13,2.57,5.26,5.93,5.26a8.79,8.79,0,0,0,7.16-3.69Z" fill="none" stroke="#000" stroke-width="18.93"/><path d="M213.09,483.44V473.15l20.58-6.6v16.89h10.63V498H233.67v19.91c0,3.8-.78,8.95,3.58,8.95a25.66,25.66,0,0,0,7-1.9v14.32c-3.36,1.34-11,2.13-13.53,2.13-16.78,0-17.34-9.17-17.67-23.49V498h-6V483.44Z" fill="none" stroke="#000" stroke-width="18.93"/><path d="M250,488.13c4.47-2.68,14.09-7.94,24.38-7.94,13.42,0,30.31,5,30.31,23V525h6.71v14.32H287.46l-2.68-5c-4.14,5.7-11.07,7.16-15.1,7.16-10.63,0-22-5.7-22-18.68,0-12.64,10.63-20.58,23.26-20.58,6.6,0,10.51,3.24,11.07,3.91v-3.91c0-5-4.59-6.26-10.63-6.26-6.6,0-12.42,2.8-16.67,5.14ZM282,519c-.34-.56-1.9-3.24-6.6-3.24-4.47,0-6.49,2.46-6.49,5.93,0,3.13,2.57,5.26,5.93,5.26a8.79,8.79,0,0,0,7.16-3.69Z" fill="none" stroke="#000" stroke-width="18.93"/><path d="M315.88,539.36V524.71h4.81V469.9H316V455.48h25.95v69.23h6.6v14.65Z" fill="none" stroke="#000" stroke-width="18.93"/><path d="M354.24,488.13c4.47-2.68,14.09-7.94,24.38-7.94,13.42,0,30.31,5,30.31,23V525h6.71v14.32H391.71l-2.68-5c-4.14,5.7-11.07,7.16-15.1,7.16-10.63,0-22-5.7-22-18.68,0-12.64,10.63-20.58,23.26-20.58,6.6,0,10.51,3.24,11.07,3.91v-3.91c0-5-4.59-6.26-10.62-6.26-6.6,0-12.42,2.8-16.67,5.14Zm32,30.87c-.34-.56-1.9-3.24-6.6-3.24-4.47,0-6.49,2.46-6.49,5.93,0,3.13,2.57,5.26,5.93,5.26a8.79,8.79,0,0,0,7.16-3.69Z" fill="none" stroke="#000" stroke-width="18.93"/><path d="M420.79,524.82h4.7V470.13h-4.7V455.48h27.07V487.8c2.46-2.91,9.17-5.26,14.65-5.26,17,0,26.06,14.32,25.72,29.3-.34,17.22-10.07,28.75-25.84,28.75-8.5,0-11.63-2.35-14.76-5l-1.68,3.8H420.79Zm34.79-26.51c-4.36,0-8.39,5.48-7.94,14.32,0,7.61,3.8,13.42,8.05,13.42,4.7,0,7.94-5.48,7.94-14C463.63,505.36,460.49,498.31,455.57,498.31Z" fill="none" stroke="#000" stroke-width="18.93"/><path d="M492.37,519.23h15c0,5.93,8.5,7.49,11.86,7.49,2.24,0,4.92-.67,4.92-3.8,0-3.36-8.39-3.92-16.44-6.71-7.61-2.68-14.88-7.38-14.88-17.9,0-11.41,11.74-16.22,19.69-16.22,7.61,0,14.32,3.92,16.67,8.72l.89-7.38h13.76v20.13H529.28c0-4.7-5.82-8.5-11.41-8.5-2.35,0-4.36,1.23-4.36,4,0,3.13,6.6,4.47,13.76,6.93,8.5,2.91,18,6.15,18,17.9,0,10.51-10,16.78-20.8,16.78-8.05,0-14.43-3.91-17.11-8.16l-1,6.82h-14Z" fill="none" stroke="#000" stroke-width="18.93"/></g><g style="isolation:isolate"><path d="M60.53,524.48h6.93V475.94H60.53V461.18H94.64c27.07,0,42.5,16.67,42.5,38,0,25.5-15.43,40.15-42.95,40.15H60.53Zm34.11,0c11.86-.22,16.78-11.3,16.78-25.28,0-12-4.92-23.26-16.78-23.26H90.39v48.54Z" fill="none" stroke="#fff" stroke-width="8.11"/><path d="M142.29,488.13c4.47-2.68,14.09-7.94,24.38-7.94,13.42,0,30.31,5,30.31,23V525h6.71v14.32H179.76l-2.68-5c-4.14,5.7-11.07,7.16-15.1,7.16-10.63,0-22-5.7-22-18.68,0-12.64,10.63-20.58,23.26-20.58,6.6,0,10.51,3.24,11.07,3.91v-3.91c0-5-4.59-6.26-10.63-6.26-6.6,0-12.42,2.8-16.67,5.14Zm32,30.87c-.34-.56-1.9-3.24-6.6-3.24-4.47,0-6.49,2.46-6.49,5.93,0,3.13,2.57,5.26,5.93,5.26a8.79,8.79,0,0,0,7.16-3.69Z" fill="none" stroke="#fff" stroke-width="8.11"/><path d="M213.09,483.44V473.15l20.58-6.6v16.89h10.63V498H233.67v19.91c0,3.8-.78,8.95,3.58,8.95a25.66,25.66,0,0,0,7-1.9v14.32c-3.36,1.34-11,2.13-13.53,2.13-16.78,0-17.34-9.17-17.67-23.49V498h-6V483.44Z" fill="none" stroke="#fff" stroke-width="8.11"/><path d="M250,488.13c4.47-2.68,14.09-7.94,24.38-7.94,13.42,0,30.31,5,30.31,23V525h6.71v14.32H287.46l-2.68-5c-4.14,5.7-11.07,7.16-15.1,7.16-10.63,0-22-5.7-22-18.68,0-12.64,10.63-20.58,23.26-20.58,6.6,0,10.51,3.24,11.07,3.91v-3.91c0-5-4.59-6.26-10.63-6.26-6.6,0-12.42,2.8-16.67,5.14ZM282,519c-.34-.56-1.9-3.24-6.6-3.24-4.47,0-6.49,2.46-6.49,5.93,0,3.13,2.57,5.26,5.93,5.26a8.79,8.79,0,0,0,7.16-3.69Z" fill="none" stroke="#fff" stroke-width="8.11"/><path d="M315.88,539.36V524.71h4.81V469.9H316V455.48h25.95v69.23h6.6v14.65Z" fill="none" stroke="#fff" stroke-width="8.11"/><path d="M354.24,488.13c4.47-2.68,14.09-7.94,24.38-7.94,13.42,0,30.31,5,30.31,23V525h6.71v14.32H391.71l-2.68-5c-4.14,5.7-11.07,7.16-15.1,7.16-10.63,0-22-5.7-22-18.68,0-12.64,10.63-20.58,23.26-20.58,6.6,0,10.51,3.24,11.07,3.91v-3.91c0-5-4.59-6.26-10.62-6.26-6.6,0-12.42,2.8-16.67,5.14Zm32,30.87c-.34-.56-1.9-3.24-6.6-3.24-4.47,0-6.49,2.46-6.49,5.93,0,3.13,2.57,5.26,5.93,5.26a8.79,8.79,0,0,0,7.16-3.69Z" fill="none" stroke="#fff" stroke-width="8.11"/><path d="M420.79,524.82h4.7V470.13h-4.7V455.48h27.07V487.8c2.46-2.91,9.17-5.26,14.65-5.26,17,0,26.06,14.32,25.72,29.3-.34,17.22-10.07,28.75-25.84,28.75-8.5,0-11.63-2.35-14.76-5l-1.68,3.8H420.79Zm34.79-26.51c-4.36,0-8.39,5.48-7.94,14.32,0,7.61,3.8,13.42,8.05,13.42,4.7,0,7.94-5.48,7.94-14C463.63,505.36,460.49,498.31,455.57,498.31Z" fill="none" stroke="#fff" stroke-width="8.11"/><path d="M492.37,519.23h15c0,5.93,8.5,7.49,11.86,7.49,2.24,0,4.92-.67,4.92-3.8,0-3.36-8.39-3.92-16.44-6.71-7.61-2.68-14.88-7.38-14.88-17.9,0-11.41,11.74-16.22,19.69-16.22,7.61,0,14.32,3.92,16.67,8.72l.89-7.38h13.76v20.13H529.28c0-4.7-5.82-8.5-11.41-8.5-2.35,0-4.36,1.23-4.36,4,0,3.13,6.6,4.47,13.76,6.93,8.5,2.91,18,6.15,18,17.9,0,10.51-10,16.78-20.8,16.78-8.05,0-14.43-3.91-17.11-8.16l-1,6.82h-14Z" fill="none" stroke="#fff" stroke-width="8.11"/></g><path d="M275.41,515.75c-4.48,0-6.48,2.46-6.48,5.93,0,3.13,2.57,5.26,5.93,5.26a8.79,8.79,0,0,0,7.15-3.69V519C281.66,518.44,280.1,515.75,275.41,515.75Z" fill="none"/><path d="M167.7,515.75c-4.48,0-6.49,2.46-6.49,5.93,0,3.13,2.57,5.26,5.93,5.26a8.79,8.79,0,0,0,7.15-3.69V519C174,518.44,172.39,515.75,167.7,515.75Z" fill="none"/><path d="M379.67,515.75c-4.48,0-6.48,2.46-6.48,5.93,0,3.13,2.57,5.26,5.93,5.26a8.79,8.79,0,0,0,7.15-3.69V519C385.92,518.44,384.36,515.75,379.67,515.75Z" fill="none"/><path d="M94.63,475.94H90.39v48.54h4.24c11.86-.22,16.78-11.3,16.78-25.28C111.41,487.2,106.48,475.94,94.63,475.94Z" fill="none"/><path d="M455.56,498.31c-4.37,0-8.39,5.48-7.94,14.32,0,7.6,3.81,13.42,8,13.42,4.7,0,7.94-5.49,7.94-14C463.65,505.36,460.56,498.31,455.56,498.31Z" fill="none"/><path d="M94.64,461.18H60.52v14.76h6.93v48.54H60.52v14.86H94.15c27.56,0,43-14.66,43-40.16C137.15,477.85,121.71,461.18,94.64,461.18Zm0,63.3H90.39V475.94h4.24c11.85,0,16.78,11.26,16.78,23.26C111.41,513.18,106.49,524.26,94.63,524.48Z"/><path d="M197,503.19c0-18-16.9-23-30.32-23-10.29,0-19.9,5.25-24.38,7.94l4.73,13c4.25-2.35,10.08-5.15,16.67-5.15,6,0,10.62,1.27,10.62,6.27v3.92c-.56-.67-4.48-3.92-11.07-3.92-12.64,0-23.26,7.94-23.26,20.58,0,13,11.38,18.68,22,18.68,4,0,11-1.44,15.1-7.15l2.69,5H203.7V525H197Zm-22.7,20.06a8.79,8.79,0,0,1-7.15,3.69c-3.36,0-5.93-2.13-5.93-5.26,0-3.47,2-5.93,6.49-5.93,4.69,0,6.25,2.69,6.59,3.25Z"/><path d="M233.68,466.55l-20.58,6.59v10.29H207V498h6v20c.34,14.32.9,23.49,17.68,23.49,2.53,0,10.17-.79,13.53-2.13V525a25.69,25.69,0,0,1-7,1.9c-4.36,0-3.58-5.19-3.58-9V498H244.3V483.44H233.68Z"/><path d="M304.69,503.19c0-18-16.89-23-30.31-23-10.29,0-19.9,5.25-24.38,7.94l4.75,13c4.25-2.35,10.08-5.15,16.67-5.15,6,0,10.62,1.27,10.62,6.27v3.92c-.56-.67-4.48-3.92-11.07-3.92-12.64,0-23.26,7.94-23.26,20.58,0,13,11.38,18.68,22,18.68,4,0,11-1.49,15-7.16l2.69,5h24V525h-6.71Zm-29.83,23.75c-3.36,0-5.93-2.13-5.93-5.26,0-3.47,2-5.93,6.48-5.93,4.69,0,6.25,2.69,6.59,3.25v4.25A8.79,8.79,0,0,1,274.86,526.94Z"/><polygon points="342 455.47 316 455.47 316 469.9 320.67 469.9 320.67 524.71 315.89 524.71 315.89 539.36 348.59 539.36 348.59 524.71 342 524.71 342 455.47"/><path d="M409,503.19c0-18-16.89-23-30.31-23-10.29,0-19.9,5.25-24.38,7.94l4.65,13c4.25-2.35,10.08-5.15,16.67-5.15,6,0,10.62,1.27,10.62,6.27v3.92c-.56-.67-4.48-3.92-11.07-3.92-12.64,0-23.26,7.94-23.26,20.58,0,13,11.38,18.68,22,18.68,4,0,11-1.44,15.1-7.15l2.69,5h24V525H409Zm-29.83,23.75c-3.36,0-5.93-2.13-5.93-5.26,0-3.47,2-5.93,6.48-5.93,4.69,0,6.25,2.69,6.59,3.25v4.25A8.79,8.79,0,0,1,379.12,526.94Z"/><path d="M462.54,482.54c-5.48,0-12.19,2.35-14.65,5.26V455.47H420.82v14.65h4.7v54.7h-4.7v14.59H446l1.66-3.81c3.14,2.65,6.27,5,14.77,5,15.78,0,25.5-11.52,25.84-28.75C488.6,496.86,479.54,482.54,462.54,482.54ZM455.62,526c-4.19,0-8-5.82-8-13.42-.45-8.84,3.57-14.32,7.94-14.32,5,0,8.09,7,8,13.74C463.56,520.56,460.32,526,455.62,526Z"/><path d="M527.29,506c-7.17-2.45-13.76-3.8-13.76-6.93,0-2.77,2-4,4.37-4,5.59,0,11.41,3.8,11.41,8.5h14.56V483.42H530.11l-.9,7.38c-2.35-4.8-9.07-8.72-16.67-8.72-7.94,0-19.68,4.81-19.68,16.22,0,10.52,7.28,15.21,14.88,17.9,8.06,2.79,16.45,3.35,16.45,6.71,0,3.14-2.69,3.81-4.93,3.81-3.36,0-11.86-1.56-11.86-7.49h-15l0,20.09h14l1-6.82c2.69,4.24,9.12,8.16,17.12,8.16,10.8,0,20.8-6.27,20.8-16.78C545.29,512.14,535.79,508.89,527.29,506Z"/><path d="M470.91,226.72C491.63,318.35,434.18,409.35,342.63,430S159.94,393.29,139.22,301.7,176,119.18,267.72,98.44A169.87,169.87,0,0,1,470.89,226.63Z" fill="url(#t)"/><path d="M445.93,138.18A71.37,71.37,0,1,1,360.58,84.3a71.37,71.37,0,0,1,85.35,53.88Z" fill="url(#u)"/><path d="M483.93,312a56.21,56.21,0,1,1-67.3-42.37h.12A56.26,56.26,0,0,1,483.93,312Z" fill="url(#v)"/><path d="M247.48,387.47a46.23,46.23,0,1,1-55.25-35h0A46.4,46.4,0,0,1,247.48,387.47Z" fill="url(#w)"/><path d="M317.71,215.35A34,34,0,1,1,277,189.74h.11A34,34,0,0,1,317.71,215.35Z" fill="url(#x)"/><path d="M170.41,256.51a34,34,0,1,1,0-.06Z" fill="url(#y)"/><path d="M226.29,151.69a41,41,0,1,1-49.12-30.81h.06a40.89,40.89,0,0,1,49,30.69Z" fill="url(#z)"/><path d="M354.69,259.27a43.38,43.38,0,1,1-51.91-32.69h.11a43.24,43.24,0,0,1,51.74,32.53Z" fill="url(#aa)"/><g mask="url(#ab)"><path d="M328.73,92.06a73.6,73.6,0,1,0,0-.06Z" fill="#fff" opacity="0.74" style="isolation:isolate"/></g><g mask="url(#ac)"><path d="M385.07,133.38C352.7,56.5,329.34-7,332.84-8.51s32.6,59.69,65,136.48,55.73,140.36,52.22,141.89S417.39,210.18,385.07,133.38Z" fill="#fff"/></g><g mask="url(#ad)"><path d="M387.25,120.89c118.29-49.81,216-85.78,218.38-80.38s-91.81,50.18-210.07,99.92-216,85.74-218.28,80.36S269,170.64,387.25,120.89Z" fill="#fff"/></g><g mask="url(#ae)"><path d="M393.41,125.67c60.22,24.51,108,46.63,106.92,49.39s-50.81-14.88-110.92-39.41-108-46.58-106.92-49.38S333.29,101.18,393.41,125.67Z" fill="#fff"/></g><g mask="url(#af)"><path d="M386.43,128.65c24.51-60.17,46.62-108,49.38-106.92s-14.92,50.83-39.42,110.91-46.61,108-49.36,106.92S361.93,188.78,386.43,128.65Z" fill="#fff"/></g><g mask="url(#ag)"><path d="M133,95.06a52,52,0,1,0,71.56-17h-.06A52,52,0,0,0,133,95.06Z" fill="#fff" opacity="0.74" style="isolation:isolate"/></g><g mask="url(#ah)"><path d="M172.72,124.25C149.89,70,133.44,25.18,135.87,24.11s23,42.1,45.81,96.31,39.32,99,36.84,100.1S195.53,178.45,172.72,124.25Z" fill="#fff"/></g><g mask="url(#ai)"><path d="M174.25,115.43c83.48-35.12,152.45-60.53,154-56.72s-64.7,35.47-148.14,70.53-152.41,60.5-154,56.7S90.84,150.55,174.25,115.43Z" fill="#fff"/></g><g mask="url(#aj)"><path d="M178.63,118.82c42.47,17.31,76.24,32.88,75.45,34.83s-35.87-10.47-78.31-27.81S99.56,92.94,100.35,91,136.2,101.53,178.63,118.82Z" fill="#fff"/></g><g mask="url(#ak)"><path d="M173.68,120.92c17.3-42.46,32.95-76.23,34.85-75.44S198,81.33,180.71,123.77s-32.9,76.21-34.83,75.41S156.42,163.34,173.68,120.92Z" fill="#fff"/></g><g mask="url(#al)"><path d="M263.13,239.79a52,52,0,1,0,71.56-17h-.06A52,52,0,0,0,263.13,239.79Z" fill="#fff" opacity="0.74" style="isolation:isolate"/></g><g mask="url(#am)"><path d="M302.88,268.93C280,214.67,263.56,169.88,266,168.82s23,42.1,45.81,96.31,39.32,99,36.85,100S325.7,323.18,302.88,268.93Z" fill="#fff"/></g><g mask="url(#an)"><path d="M304.42,260.12C387.9,225,456.87,199.6,458.49,203.41s-64.77,35.41-148.19,70.51-152.44,60.52-154.08,56.72S221,295.25,304.42,260.12Z" fill="#fff"/></g><g mask="url(#ao)"><path d="M308.78,263.51c42.5,17.31,76.23,32.89,75.47,34.84S348.4,287.84,306,270.52s-76.21-32.88-75.41-34.82S266.34,246.18,308.78,263.51Z" fill="#fff"/></g><g mask="url(#ap)"><path d="M303.85,265.61c17.3-42.46,32.9-76.22,34.85-75.45S328.17,226,310.88,268.45,278,344.66,276,343.87,286.56,308,303.85,265.61Z" fill="#fff"/></g><g mask="url(#aq)"><path d="M105.31,474.18a88.41,88.41,0,1,0,0-.06Z" fill="#fff"/></g><g mask="url(#ar)"><path d="M188.13,341a133,133,0,1,0,133-133,133,133,0,0,0-133,133Z" fill="#fff"/></g><g mask="url(#as)"><path d="M93.15,393.09C178,511.32,342.38,538.48,460.87,453.72,579.1,368.91,606.34,204.45,521.46,86.18,436.8-32.08,272.2-59.25,154,25.33,35.63,110.12,8.54,274.64,93.15,393.09Z" fill="#fff"/></g><g mask="url(#at)"><path d="M406.81,349.86a71.59,71.59,0,1,0,16.52-99.92,71.59,71.59,0,0,0-16.52,99.92Z" fill="#fff"/></g></svg>