<svg xmlns="http://www.w3.org/2000/svg" viewBox="0 0 110.34 32.36"><title>logo_long</title><path d="M1.19,31h108V1.19H1.19Zm109.15,1.18H0V0H110.34Z" fill="#3a357b"/><polygon points="9.92 8.99 9.92 12.36 13.2 12.36 17.19 8.99 9.92 8.99" fill="#3a357b"/><rect x="18.69" y="8.99" width="3.28" height="3.37" fill="#3a357b"/><polygon points="14.11 12.36 14.11 24.31 18.11 24.31 18.11 12.36 18.11 8.99 14.11 12.36" fill="#3a357b"/><polygon points="14.11 12.37 14.11 24.31 18.11 24.31 18.11 12.37 18.11 8.99 14.11 12.37" fill="#3a357b"/><polygon points="69.76 10.76 69.76 13.89 68.54 13.89 68.54 16.95 69.76 16.95 69.76 24.31 73.45 24.31 73.45 16.95 75.55 16.95 75.55 13.89 73.45 13.89 73.45 10.76 69.76 10.76" fill="#3a357b"/><path d="M80.9,24.31H77.21V13.89H80.9ZM77,9.89a2,2,0,0,1,.16-.8A2.11,2.11,0,0,1,78.24,8a2.08,2.08,0,0,1,1.61,0A2.11,2.11,0,0,1,81,9.08a2.06,2.06,0,0,1,0,1.6,2.1,2.1,0,0,1-.45.66,2.07,2.07,0,0,1-.66.45,2.07,2.07,0,0,1-1.61,0,2.11,2.11,0,0,1-1.11-1.11,2,2,0,0,1-.16-.8" fill="#3a357b"/><rect x="83.43" y="7.45" width="3.69" height="16.86" fill="#3a357b"/><path d="M97,17.59a2.22,2.22,0,0,0-.75-1.24,2.34,2.34,0,0,0-2.78,0,2,2,0,0,0-.68,1.26Zm-4.32,2.13q0,2.38,2.24,2.38a2,2,0,0,0,1.81-1h3.56q-1.08,3.58-5.4,3.58a7.11,7.11,0,0,1-2.42-.4,5.4,5.4,0,0,1-1.88-1.13,5,5,0,0,1-1.21-1.75,5.81,5.81,0,0,1-.43-2.28,6.44,6.44,0,0,1,.41-2.35A4.93,4.93,0,0,1,90.5,15a5.14,5.14,0,0,1,1.82-1.13,6.93,6.93,0,0,1,2.41-.4,6.79,6.79,0,0,1,2.38.4A4.84,4.84,0,0,1,98.91,15,5,5,0,0,1,100,16.88a7.3,7.3,0,0,1,.39,2.45v.38Z" fill="#3a357b"/><path d="M26,13.89v5.87a1.68,1.68,0,0,0,1.87,1.93,1.68,1.68,0,0,0,1.87-1.93V13.89h3.69v6.58a3.72,3.72,0,0,1-1.4,3.17A6.85,6.85,0,0,1,27.9,24.7a6.85,6.85,0,0,1-4.17-1.06,3.72,3.72,0,0,1-1.4-3.17V13.89Z" fill="#3a357b"/><path d="M35.67,13.89h3.69v1.71a4.23,4.23,0,0,1,1.45-1.43,3.91,3.91,0,0,1,2-.5h.31a2.27,2.27,0,0,1,.4,0v3.51a3.51,3.51,0,0,0-1.59-.37,2.37,2.37,0,0,0-1.93.76,3.37,3.37,0,0,0-.64,2.22v4.47H35.67Z" fill="#3a357b"/><path d="M45.16,13.89h3.69v1.32A4,4,0,0,1,50.37,14a4.81,4.81,0,0,1,1.81-.31,4.56,4.56,0,0,1,1.88.35,3.76,3.76,0,0,1,1.33,1A2.89,2.89,0,0,1,56,16.2a6.11,6.11,0,0,1,.16,1.48v6.62H52.49V19a5.64,5.64,0,0,0-.11-1.25A1.56,1.56,0,0,0,52,17a1.4,1.4,0,0,0-.55-.35,2.08,2.08,0,0,0-.65-.1,1.83,1.83,0,0,0-1.44.56,2.32,2.32,0,0,0-.5,1.6v5.57H45.16Z" fill="#3a357b"/><path d="M65.61,16.57a4.32,4.32,0,0,0-2-.53,1.5,1.5,0,0,0-.83.2.62.62,0,0,0-.32.55.73.73,0,0,0,.05.3.51.51,0,0,0,.22.21,1.91,1.91,0,0,0,.51.18l.89.2a4.23,4.23,0,0,1,2.28,1.09,2.76,2.76,0,0,1,.75,2,3.62,3.62,0,0,1-.37,1.65,3.49,3.49,0,0,1-1,1.23,4.84,4.84,0,0,1-1.57.77,7,7,0,0,1-2,.27A8.21,8.21,0,0,1,58,23.5l1.35-2.6A5.25,5.25,0,0,0,62.31,22a1.44,1.44,0,0,0,.84-.22.67.67,0,0,0,.33-.57.94.94,0,0,0-.05-.33.55.55,0,0,0-.21-.24,1.74,1.74,0,0,0-.48-.2c-.21-.06-.48-.12-.83-.19a4.72,4.72,0,0,1-2.39-1,2.53,2.53,0,0,1-.68-1.88,3.69,3.69,0,0,1,.33-1.57,3.24,3.24,0,0,1,.94-1.19,4.38,4.38,0,0,1,1.48-.75,6.58,6.58,0,0,1,1.92-.26,8.76,8.76,0,0,1,3.36.67Z" fill="#3a357b"/><polygon points="69.76 10.76 69.76 13.89 68.54 13.89 68.54 16.95 69.76 16.95 69.76 24.31 73.45 24.31 73.45 16.95 75.55 16.95 75.55 13.89 73.45 13.89 73.45 10.76 69.76 10.76" fill="#3a357b"/></svg>