<svg xmlns="http://www.w3.org/2000/svg" viewBox="0 0 612 612"><title>ur_logo</title><circle cx="306" cy="306" r="289" fill="#ddd"/><path d="M183.35,239.56l-26.41-88.93h21.85l16,60.62,16-60.62h20l-26.41,88.93v44.08h-20.9Z" fill="#474956"/><path d="M234.46,182.55c0-21.28,11.21-33.44,31.73-33.44s31.73,12.16,31.73,33.44v69.17c0,21.28-11.21,33.44-31.73,33.44S234.46,273,234.46,251.72Zm20.9,70.5c0,9.5,4.18,13.11,10.83,13.11S277,262.55,277,253V181.22c0-9.5-4.18-13.11-10.83-13.11s-10.83,3.61-10.83,13.11Z" fill="#474956"/><path d="M331.37,150.63V253.24c0,9.5,4.18,12.92,10.83,12.92s10.8-3.42,10.8-12.92V150.63h19.76V251.91c0,21.28-10.64,33.44-31.16,33.44s-31.16-12.16-31.16-33.44V150.63Z" fill="#474956"/><path d="M430.74,283.64c-1.14-3.42-1.9-5.51-1.9-16.34V246.4c0-12.35-4.18-16.91-13.68-16.91h-7.22v54.16H387v-133h31.54c21.66,0,31,10.07,31,30.59v10.45c0,13.68-4.37,22.61-13.68,27C446.33,223,449.75,233.1,449.75,247v20.52c0,6.46.19,11.21,2.28,16.15Zm-22.8-114v40.85h8.17c7.79,0,12.54-3.42,12.54-14.06V183.31c0-9.5-3.23-13.68-10.64-13.68Z" fill="#474956"/><path d="M169.1,322.84H190v114h34.39v19H169.1Z" fill="#474956"/><path d="M231.8,354.77c0-21.28,11.21-33.44,31.73-33.44s31.73,12.16,31.73,33.44v69.17c0,21.28-11.21,33.44-31.73,33.44s-31.73-12.16-31.73-33.44Zm20.9,70.5c0,9.5,4.18,13.11,10.83,13.11s10.83-3.61,10.83-13.11V353.44c0-9.5-4.18-13.11-10.83-13.11s-10.83,3.61-10.83,13.11Z" fill="#474956"/><path d="M340.11,381.75h29.26v42.18c0,21.28-10.64,33.44-31.16,33.44S307,445.22,307,423.93V354.77c0-21.28,10.64-33.44,31.16-33.44s31.16,12.16,31.16,33.44v12.92H349.61V353.44c0-9.5-4.18-13.11-10.83-13.11S328,343.94,328,353.44v71.83c0,9.5,4.18,12.92,10.83,12.92s10.83-3.42,10.83-12.92V400.75h-9.5Z" fill="#474956"/><path d="M381.15,354.77c0-21.28,11.21-33.44,31.73-33.44s31.73,12.16,31.73,33.44v69.17c0,21.28-11.21,33.44-31.73,33.44s-31.73-12.16-31.73-33.44Zm20.9,70.5c0,9.5,4.18,13.11,10.83,13.11s10.83-3.61,10.83-13.11V353.44c0-9.5-4.18-13.11-10.83-13.11S402,343.94,402,353.44Z" fill="#474956"/></svg>