<svg xmlns="http://www.w3.org/2000/svg" viewBox="0 0 612 612"><title>vendor_logo</title><circle cx="306" cy="306" r="289" fill="#474956"/><path d="M169.1,322.84H190v114h34.39v19H169.1Z" fill="#fff"/><path d="M231.8,354.77c0-21.28,11.21-33.44,31.73-33.44s31.73,12.16,31.73,33.44v69.17c0,21.28-11.21,33.44-31.73,33.44s-31.73-12.16-31.73-33.44Zm20.9,70.5c0,9.5,4.18,13.11,10.83,13.11s10.83-3.61,10.83-13.11V353.44c0-9.5-4.18-13.11-10.83-13.11s-10.83,3.61-10.83,13.11Z" fill="#fff"/><path d="M340.11,381.75h29.26v42.18c0,21.28-10.64,33.44-31.16,33.44S307,445.22,307,423.93V354.77c0-21.28,10.64-33.44,31.16-33.44s31.16,12.16,31.16,33.44v12.92H349.61V353.44c0-9.5-4.18-13.11-10.83-13.11S328,343.94,328,353.44v71.83c0,9.5,4.18,12.92,10.83,12.92s10.83-3.42,10.83-12.92V400.75h-9.5Z" fill="#fff"/><path d="M381.15,354.77c0-21.28,11.21-33.44,31.73-33.44s31.73,12.16,31.73,33.44v69.17c0,21.28-11.21,33.44-31.73,33.44s-31.73-12.16-31.73-33.44Zm20.9,70.5c0,9.5,4.18,13.11,10.83,13.11s10.83-3.61,10.83-13.11V353.44c0-9.5-4.18-13.11-10.83-13.11S402,343.94,402,353.44Z" fill="#fff"/><text transform="translate(111.29 296.25)" font-size="164.19" fill="#fff" font-family="BebasNeue, Bebas Neue">VENDOR</text></svg>